<?xml version="1.0" ?><!DOCTYPE svg  PUBLIC '-//W3C//DTD SVG 1.1//EN'  'http://www.w3.org/Graphics/SVG/1.1/DTD/svg11.dtd'><svg height="512px" style="enable-background:new 0 0 512 512;" version="1.1" viewBox="0 0 512 512" width="512px" xml:space="preserve" xmlns="http://www.w3.org/2000/svg" xmlns:xlink="http://www.w3.org/1999/xlink"><g id="comp_x5F_149-goodreads"><g><path d="    M127.624,378.107h2.406c10.917,0,21.917,0,32.832,0.09c1.376,0,2.665-0.346,3.095,1.804c6.102,29.995,25.784,42.008,54.061,50    c23.12,6.531,46.497,5.156,69.875,0c29.049-6.361,48.13-22.409,58.443-50c6.876-18.479,9.195-30.487,9.454-50    c0.086-4.983,0.258-38.477-0.172-43.461l-0.772-0.258c-0.688,1.289-1.464,2.493-2.15,3.782    c-18.993,37.044-52.686,57.928-90.589,59.39c-88.525,3.438-145.593-48.99-147.828-151.441c-0.43-20.369,1.547-40.309,7.134-59.905    C141.117,77,187.528,36.519,255.685,36.004c52.686-0.344,87.236,33.262,99.871,60.42c0.431,0.944,1.116,1.976,2.063,1.633V45.115    h38.075c0,240.911,0.085,285.517,0.085,285.517c-0.085,67.468-22.946,123.508-88.525,139.405    c-59.733,14.524-136.656,4.126-168.455-49.16C131.922,409.273,128.655,392.034,127.624,378.107L127.624,378.107z" style="fill:none;stroke:#000000;stroke-width:20;stroke-linecap:round;stroke-linejoin:round;stroke-miterlimit:10;"/><path d="    M251.385,77.375c-41.525-0.396-85.818,32.191-90.959,105.828c-3.242,46.667,11.707,96.656,56.553,117.539    c21.831,10.202,58.769,11.863,85.66-6.883c37.65-26.259,49.594-76.723,43.346-121.808    C338.311,115.814,308.175,77.137,251.385,77.375z" style="fill:none;stroke:#000000;stroke-width:20;stroke-linecap:round;stroke-linejoin:round;stroke-miterlimit:10;"/></g></g><g id="Layer_1"/></svg>